<?xml version="1.0" standalone="no"?><!DOCTYPE svg PUBLIC "-//W3C//DTD SVG 1.1//EN" "http://www.w3.org/Graphics/SVG/1.1/DTD/svg11.dtd"><svg t="1539339151883" class="icon" style="" viewBox="0 0 1024 1024" version="1.1" xmlns="http://www.w3.org/2000/svg" p-id="4338" xmlns:xlink="http://www.w3.org/1999/xlink" width="200" height="200"><defs><style type="text/css"></style></defs><path d="M775.880948 224.891397a49.380773 49.380773 0 0 0 49.332643-49.412859V51.144234a49.364729 49.364729 0 1 0-98.713416 0v124.334304a49.380773 49.380773 0 0 0 49.380773 49.412859m-528.364641 0a49.364729 49.364729 0 0 0 49.332643-49.412859V51.144234a49.364729 49.364729 0 1 0-98.713415 0v124.334304a49.396816 49.396816 0 0 0 49.380772 49.412859m719.326088-98.825718h-92.280118v49.412859a98.729459 98.729459 0 0 1-197.458918 0V126.065679H346.261809v49.412859a98.745502 98.745502 0 0 1-197.474961 0V126.065679H55.592271a49.477031 49.477031 0 0 0-49.428902 49.57329v798.787741a49.477031 49.477031 0 0 0 49.428902 49.57329h911.089693a49.493075 49.493075 0 0 0 49.444945-49.57329V175.318107a49.348686 49.348686 0 0 0-49.284514-49.252428m-46.156102 789.482722a12.208826 12.208826 0 0 1-12.22487 12.192783H114.326192a12.208826 12.208826 0 0 1-12.208826-12.192783V377.782483a12.208826 12.208826 0 0 1 12.208826-12.192784h794.135231a12.208826 12.208826 0 0 1 12.22487 12.192784v537.765918zM248.254291 551.690077a48.530486 48.530486 0 0 0 40.92604 55.027956l431.849135-0.160431a48.482357 48.482357 0 0 0 14.134002-95.937953l-431.88122 0.160431a48.530486 48.530486 0 0 0-55.027957 40.909997m0 176.474495a48.530486 48.530486 0 0 0 40.92604 55.027957l239.331503-0.160431a48.482357 48.482357 0 0 0 14.134003-95.937954l-239.363589 0.160432a48.530486 48.530486 0 0 0-55.027957 40.909996" fill="#30C4E9" p-id="4339"></path></svg>