<?xml version="1.0" standalone="no"?><!DOCTYPE svg PUBLIC "-//W3C//DTD SVG 1.1//EN" "http://www.w3.org/Graphics/SVG/1.1/DTD/svg11.dtd"><svg t="1539585648313" class="icon" style="" viewBox="0 0 1024 1024" version="1.1" xmlns="http://www.w3.org/2000/svg" p-id="4815" xmlns:xlink="http://www.w3.org/1999/xlink" width="200" height="200"><defs><style type="text/css"></style></defs><path d="M625.3 314.4H324.8c-5.8 0-10.4-4.7-10.4-10.4v-82.7c0-40.8 33.2-73.9 73.9-73.9h173.5c40.8 0 73.9 33.2 73.9 73.9V304c0.1 5.7-4.6 10.4-10.4 10.4z m-291.6-19.3h282.8v-73.9c0-30.1-24.5-54.6-54.6-54.6H388.3c-30.1 0-54.6 24.5-54.6 54.6v73.9z" fill="#FFDBA2" p-id="4816"></path><path d="M713.3 761.1H249.8c-44 0-80-36-80-80V384.7c0-44 36-80 80-80h463.5c44 0 80 36 80 80V681c0 44.1-36 80.1-80 80.1z" fill="#FFDB69" p-id="4817"></path><path d="M179.8 761.1h603.5c5.5 0 10-4.5 10-10V425.2L439.7 550.6l-270-105v305.5c0.1 5.5 4.6 10 10.1 10z" fill="#FFECB6" p-id="4818"></path><path d="M211.6 751.4H202c-5.3 0-9.6-4.3-9.6-9.6s4.3-9.6 9.6-9.6h9.6c5.3 0 9.6 4.3 9.6 9.6s-4.3 9.6-9.6 9.6z" fill="" p-id="4819"></path><path d="M696.9 751.4H301.6c-5.3 0-9.6-4.3-9.6-9.6s4.3-9.6 9.6-9.6h395.3c30.1 0 54.6-24.5 54.6-54.6V349.7c0-30.1-24.5-54.6-54.6-54.6h-495c-30.1 0-54.6 24.5-54.6 54.6v327.8c0 30.1 24.5 54.6 54.6 54.6 5.3 0 9.6 4.3 9.6 9.6s-4.3 9.6-9.6 9.6c-40.8 0-73.9-33.2-73.9-73.9V349.7c0-40.8 33.2-73.9 73.9-73.9h494.9c40.8 0 73.9 33.2 73.9 73.9v327.8c0.1 40.8-33.1 73.9-73.8 73.9z" fill="" p-id="4820"></path><path d="M599.6 295.1H299.1c-5.8 0-10.4-4.7-10.4-10.4V202c0-40.8 33.2-73.9 73.9-73.9h173.5c40.8 0 73.9 33.2 73.9 73.9v82.7c0.1 5.7-4.6 10.4-10.4 10.4zM308 275.8h282.8v-73.9c0-30.1-24.5-54.6-54.6-54.6H362.6c-30.1 0-54.6 24.5-54.6 54.6v73.9zM446.1 520.7l-311.8-117c-5-1.9-7.5-7.4-5.6-12.4 1.9-5 7.4-7.5 12.4-5.6l305.2 114.4L751.5 392c5-1.8 10.5 0.9 12.3 5.9 1.8 5-0.9 10.5-5.9 12.3L446.1 520.7z" fill="" p-id="4821"></path><path d="M674.4 198.7l38.5-45 96.4-25.7 19.3 64.3-96.4 32.1z" fill="#F7931E" p-id="4822"></path><path d="M612.7 251.8c-23.4 0-41.9-9.7-45.9-25.7-2-8.2 0-16.9 5.9-25.1 2.1-2.9 6.1-3.6 9-1.5 2.9 2.1 3.6 6.1 1.5 9-2.5 3.6-5.3 9-3.9 14.6 3.3 13.5 27.6 19.7 52.9 13.5 25.4-6.2 44-22.9 40.7-36.4-3.3-13.5-27.6-19.7-52.9-13.5-3.4 0.8-6.9-1.3-7.8-4.7-0.8-3.5 1.3-6.9 4.7-7.8 33.2-8.1 63.3 1.9 68.5 22.9 5.1 21-16.9 43.8-50.1 52-7.8 1.8-15.4 2.7-22.6 2.7z" fill="#777777" p-id="4823"></path><path d="M839.3 797.2L777.7 627l86.8-86.8c16.2-16.2 16.2-42.8 0-59.1-16.2-16.2-42.8-16.2-59.1 0L718.6 568l-170.2-61.6s-29.5-2.3-42 26.1c-12.5 28.4 14.8 48.9 14.8 48.9L621.5 665 547 739.6l-66.7-17.3s-15.9 0-21.6 12.5c-5.7 12.5-1.1 17 5.7 23.9 6.8 6.8 70.4 52.3 70.4 52.3s45.5 63.6 52.3 70.4c6.8 6.8 11.4 11.4 23.9 5.7 12.5-5.7 12.5-21.6 12.5-21.6L606 798.7l74.6-74.6 83.7 100.4s20.5 27.3 48.9 14.8c28.3-12.5 26.1-42.1 26.1-42.1z" fill="#F4F4F4" p-id="4824"></path><path d="M858.6 803.7L797 633.5l86.8-86.8c16.2-16.2 16.2-42.8 0-59.1-16.2-16.2-42.8-16.2-59.1 0l-86.8 86.8-170.2-61.6s-29.5-2.3-42 26.1c-12.5 28.4 14.8 48.9 14.8 48.9l100.4 83.7-74.7 74.5-66.7-17.3s-15.9 0-21.6 12.5c-5.7 12.5-1.1 17 5.7 23.9s70.4 52.3 70.4 52.3 45.5 63.6 52.3 70.4 11.4 11.4 23.9 5.7c12.5-5.7 12.5-21.6 12.5-21.6l-17.4-66.7 74.6-74.6L783.6 831s20.5 27.3 48.9 14.8c28.3-12.6 26.1-42.1 26.1-42.1z" fill="#F7931E" p-id="4825"></path></svg>